<?xml version="1.0" standalone="no"?>
<!DOCTYPE svg PUBLIC "-//W3C//DTD SVG 20010904//EN"
 "http://www.w3.org/TR/2001/REC-SVG-20010904/DTD/svg10.dtd">
<svg version="1.0" xmlns="http://www.w3.org/2000/svg"
 width="512.000000pt" height="512.000000pt" viewBox="0 0 512.000000 512.000000"
 preserveAspectRatio="xMidYMid meet">
<metadata>
Created by potrace 1.11, written by Peter Selinger 2001-2013
</metadata>
<g transform="translate(0.000000,512.000000) scale(0.100000,-0.100000)"
fill="#000000" stroke="none">
<path d="M2267 4964 c-1 -1 -44 -5 -95 -8 -228 -16 -461 -89 -652 -207 l-48
-29 -50 19 c-67 27 -188 23 -252 -8 -170 -80 -222 -255 -117 -393 l27 -35 -28
-64 c-112 -251 -43 -518 166 -649 30 -19 40 -31 40 -50 0 -14 7 -52 15 -85 18
-69 14 -106 -15 -132 -17 -15 -39 -18 -132 -19 -61 0 -119 -1 -128 -2 -21 -3
-78 -50 -78 -65 0 -7 7 -4 14 5 15 20 73 45 96 43 8 -1 27 -3 43 -3 l27 -2
-30 -42 c-16 -22 -30 -53 -30 -67 1 -26 1 -26 14 4 12 28 67 83 84 86 4 1 30
2 59 4 91 5 142 63 129 148 -8 59 -16 100 -21 115 -2 6 -3 12 -2 12 1 0 30 -9
64 -20 90 -28 143 -35 268 -35 122 0 178 6 275 29 55 13 179 55 243 81 26 11
21 -8 -10 -37 -45 -41 -197 -207 -313 -344 -146 -171 -325 -429 -418 -601 -58
-108 -123 -259 -138 -316 -4 -19 -31 -47 -85 -88 -106 -80 -199 -175 -265
-270 -31 -44 -63 -85 -73 -92 -28 -20 -120 -142 -172 -228 -107 -178 -159
-368 -154 -564 4 -161 19 -234 75 -375 25 -65 90 -184 102 -188 4 -2 8 -8 8
-14 0 -6 14 -28 31 -49 164 -207 383 -296 653 -265 33 4 62 9 65 11 3 1 24 6
46 9 63 10 198 53 350 113 l140 54 105 -20 c237 -45 327 -54 545 -54 183 0
359 10 495 28 14 2 50 6 80 10 65 8 106 14 140 20 14 3 41 7 60 10 108 18 283
62 415 106 295 99 486 216 645 395 79 89 136 209 166 349 2 11 4 59 5 107 0
172 -66 355 -194 533 -35 50 -70 107 -76 127 -67 209 -279 395 -586 516 -77
31 -289 94 -350 106 -16 3 -68 12 -115 21 -47 9 -96 18 -110 19 -14 2 -47 7
-75 11 -27 4 -61 9 -75 11 -14 2 -65 6 -115 9 -49 4 -101 8 -115 11 -14 2
-125 4 -247 4 l-222 0 55 73 c30 39 60 79 67 87 77 96 150 186 193 235 39 46
233 286 282 350 35 45 111 170 147 240 120 233 139 447 62 685 -85 264 -261
463 -490 554 -88 35 -231 64 -335 68 -46 2 -84 3 -85 2z m336 -975 c-1 -25 -7
-57 -13 -70 l-11 -24 6 25 c2 14 5 59 6 100 1 51 3 65 8 45 4 -16 6 -51 4 -76z
m-246 -3575 c-3 -3 -12 -4 -19 -1 -8 3 -5 6 6 6 11 1 17 -2 13 -5z"/>
</g>
</svg>
