<?xml version="1.0" encoding="UTF-8" standalone="no"?><!-- Generator: Gravit.io --><svg xmlns="http://www.w3.org/2000/svg" xmlns:xlink="http://www.w3.org/1999/xlink" style="isolation:isolate" viewBox="0 0 512 512" width="512pt" height="512pt"><defs><clipPath id="_clipPath_OaFg2ZomXdKdl4Dtcp9U3S7AK3XXnrUg"><rect width="512" height="512"/></clipPath></defs><g clip-path="url(#_clipPath_OaFg2ZomXdKdl4Dtcp9U3S7AK3XXnrUg)"><path d=" M 465.19 285.054 C 465.19 346.661 425.128 431.801 376.689 478.312 C 355.207 498.967 332.069 512 310.042 512 C 296.12 512 282.234 509.764 270.288 506.157 C 253.92 501.203 236.513 501.203 220.145 506.157 C 208.2 509.764 194.315 512 180.392 512 C 157.316 512 133.004 497.682 110.656 475.285 C 63.614 428.181 25.244 345.338 25.244 285.053 C 25.244 196.108 78.451 142.37 128.482 129.399 C 152.448 123.185 180.256 127.188 202.714 133.031 C 225.939 139.084 250.077 140.097 273.598 136.07 C 278.342 135.255 283.048 134.242 287.718 133.031 C 310.177 127.188 337.972 123.185 361.95 129.399 C 411.984 142.371 465.19 196.109 465.19 285.054 Z " fill="rgb(255,153,0)"/><path d=" M 376.687 478.307 C 317.243 488.811 271.457 485.901 236.958 477.547 C 180.623 463.906 138.715 416.391 131.731 358.851 C 114.238 214.741 208.398 172.785 208.398 172.785 C 235.996 185.324 267.028 178.628 267.028 178.628 C 247.225 158.838 273.6 136.07 273.6 136.07 C 250.079 140.097 225.94 139.084 202.716 133.031 C 180.257 127.188 152.45 123.185 128.484 129.399 C 78.451 142.371 25.245 196.109 25.245 285.054 C 25.245 373.987 108.742 512 180.392 512 C 194.314 512 208.2 509.764 220.146 506.157 C 236.514 501.203 253.92 501.203 270.289 506.157 C 282.235 509.764 296.12 512 310.043 512 C 332.069 512 355.207 498.967 376.69 478.312 C 376.687 478.309 376.69 478.312 376.687 478.307 Z " fill="rgb(213,129,3)"/><path d=" M 486.756 5.506 C 486.756 5.506 474.402 91.622 409.337 116.688 C 347.137 140.654 291.694 75.86 268.952 80.962 C 267.927 81.172 266.975 81.543 266.086 82.074 C 266.049 82.086 266.037 82.099 266.037 82.099 L 266.049 82.05 C 266.815 79.728 291.757 5.434 355.81 0.566 C 420.874 -4.377 456.28 25.272 486.756 5.506 Z " fill="rgb(199,244,146)"/><path d=" M 486.756 5.506 C 486.756 5.506 447.225 53.685 391.634 53.685 C 342.751 53.685 282.725 75.65 268.951 80.962 C 267.296 81.592 266.32 81.987 266.085 82.074 C 266.048 82.086 266.036 82.099 266.036 82.099 L 266.048 82.05 C 266.814 79.728 291.756 5.434 355.809 0.566 C 420.874 -4.377 456.28 25.272 486.756 5.506 Z " fill="rgb(163,226,97)"/><path d=" M 398.276 291.703 C 382.474 293.274 367.675 274.723 365.248 250.303 C 362.821 225.883 373.679 204.782 389.481 203.211 C 405.282 201.641 420.081 220.192 422.508 244.612 C 424.935 269.032 414.077 290.133 398.276 291.703 Z " fill="rgb(252,129,129)"/><path d=" M 291.289 166.437 C 291.289 176.555 275.402 184.98 254.315 186.894 C 251.375 187.166 248.336 187.302 245.223 187.302 C 241.974 187.302 238.812 187.154 235.76 186.87 C 214.87 184.881 199.169 176.493 199.169 166.437 L 291.289 166.437 L 291.289 166.437 Z " fill="rgb(226,61,61)"/><path d=" M 280.368 81.012 L 246.581 132.328 C 249.113 142.73 251.3 154.194 252.721 166.436 C 253.499 173.045 254.055 179.877 254.315 186.893 C 251.375 187.165 248.336 187.301 245.223 187.301 C 241.974 187.301 238.812 187.153 235.76 186.869 C 235.488 179.852 234.883 173.033 234.055 166.436 C 228.002 118.467 209.496 83.136 209.274 82.741 C 206.877 78.22 208.595 72.611 213.116 70.215 C 217.637 67.806 223.246 69.523 225.642 74.045 C 226.186 75.083 232.992 88.091 239.861 108.845 L 264.902 70.821 C 267.706 66.547 273.463 65.373 277.725 68.19 C 281.999 70.994 283.185 76.738 280.368 81.012 Z " fill="rgb(178,87,25)"/></g></svg>